<?xml version="1.0" standalone="no"?>
<!DOCTYPE svg PUBLIC "-//W3C//DTD SVG 20010904//EN"
 "http://www.w3.org/TR/2001/REC-SVG-20010904/DTD/svg10.dtd">
<svg version="1.0" xmlns="http://www.w3.org/2000/svg"
 width="1060.000000pt" height="1060.000000pt" viewBox="0 0 1060.000000 1060.000000"
 preserveAspectRatio="xMidYMid meet">
<metadata>
Created by potrace 1.11, written by Peter Selinger 2001-2013
</metadata>
<g transform="translate(0.000000,1060.000000) scale(0.100000,-0.100000)"
fill="#000000" stroke="none">
<path d="M5075 10169 c-459 -45 -888 -229 -1244 -535 -411 -353 -678 -853
-752 -1409 -7 -49 -13 -181 -13 -293 l-1 -203 -85 -61 c-322 -229 -631 -530
-865 -842 -460 -615 -724 -1307 -790 -2077 l-7 -75 -94 -47 c-558 -277 -993
-812 -1149 -1413 -174 -671 -37 -1367 378 -1924 91 -122 305 -336 427 -427
762 -569 1788 -605 2567 -91 l112 74 63 -29 c394 -181 792 -292 1233 -343 182
-22 650 -25 825 -6 290 31 617 101 873 187 136 45 358 135 450 182 l49 24 99
-65 c271 -176 573 -292 901 -343 156 -24 490 -24 646 0 249 39 477 112 694
223 584 299 1016 856 1157 1491 52 232 66 546 35 785 -95 734 -553 1371 -1230
1711 l-91 46 -12 123 c-79 799 -405 1558 -936 2183 -192 225 -495 502 -726
664 l-76 53 5 151 c17 509 -140 1000 -451 1417 -91 122 -305 336 -427 427
-455 339 -1011 497 -1565 442z m431 -924 c549 -94 984 -525 1079 -1072 19
-109 19 -333 1 -440 -49 -274 -172 -511 -370 -708 -157 -157 -324 -259 -529
-324 -154 -49 -268 -64 -442 -57 -271 10 -475 77 -700 230 -364 248 -578 675
-562 1121 10 282 95 522 264 747 209 277 512 454 873 511 67 11 305 6 386 -8z
m-2074 -2523 c346 -528 904 -881 1548 -978 156 -24 461 -24 625 0 584 85 1110
393 1459 856 40 53 88 121 107 153 19 31 36 57 39 57 14 0 196 -168 302 -279
367 -383 627 -859 752 -1374 19 -78 37 -162 41 -187 4 -25 9 -52 11 -62 4 -14
-6 -17 -63 -22 -255 -23 -394 -50 -582 -112 -807 -269 -1397 -982 -1505 -1822
-31 -240 -17 -552 35 -786 30 -136 103 -347 164 -471 29 -60 52 -111 50 -113
-10 -11 -289 -98 -407 -127 -267 -66 -386 -79 -713 -79 -319 0 -446 13 -702
74 -142 34 -406 118 -401 128 119 222 207 493 244 747 24 164 24 469 0 625
-37 250 -97 443 -205 665 -346 712 -1037 1182 -1830 1244 -74 6 -135 12 -137
13 -5 6 37 220 66 330 149 574 472 1102 920 1505 63 57 117 103 120 103 3 0
31 -40 62 -88z m5244 -2786 c384 -96 698 -345 871 -691 98 -195 136 -360 136
-585 0 -122 -4 -177 -21 -257 -101 -472 -425 -837 -875 -988 -140 -47 -255
-65 -412 -65 -157 0 -272 18 -412 65 -450 151 -774 516 -875 988 -30 144 -30
370 0 514 94 439 397 801 804 962 177 70 303 91 518 86 135 -3 184 -8 266 -29z
m-6251 -1 c541 -87 963 -482 1086 -1015 29 -123 36 -356 15 -482 -31 -192
-110 -388 -219 -548 -28 -41 -97 -120 -152 -176 -197 -198 -434 -321 -708
-370 -108 -19 -331 -18 -443 1 -546 96 -977 532 -1069 1084 -23 136 -16 378
14 497 80 320 242 571 489 757 166 124 376 217 562 247 41 6 82 13 90 15 46 9
258 3 335 -10z"/>
</g>
</svg>
